<svg xmlns="http://www.w3.org/2000/svg" viewBox="0 0 900 520" role="img" font-family="system-ui,Segoe UI,sans-serif"><rect width="100%" height="100%" fill="#ffffff"/>
<text x="40" y="40" fill="#334155" font-size="20" font-weight="700">Executive summary</text>
<text x="40" y="62" fill="#64748b" font-size="13">E-commerce sales & customer insights · Olist</text>
<rect x="40" y="90" width="820" height="390" rx="16" fill="#f8fafc" stroke="#e2e8f0"/>
<rect x="60" y="110" width="185" height="90" rx="12" fill="#ffffff" stroke="#e2e8f0"/>
<text x="76" y="140" fill="#64748b" font-size="12">Total revenue</text>
<text x="76" y="172" fill="#334155" font-size="22" font-weight="700">R$ 13.22M</text>
<rect x="260" y="110" width="185" height="90" rx="12" fill="#ffffff" stroke="#e2e8f0"/>
<text x="276" y="140" fill="#64748b" font-size="12">Orders</text>
<text x="276" y="172" fill="#334155" font-size="22" font-weight="700">96,478</text>
<rect x="460" y="110" width="185" height="90" rx="12" fill="#ffffff" stroke="#e2e8f0"/>
<text x="476" y="140" fill="#64748b" font-size="12">Avg order value</text>
<text x="476" y="172" fill="#334155" font-size="22" font-weight="700">R$ 137.04</text>
<rect x="660" y="110" width="185" height="90" rx="12" fill="#ffffff" stroke="#e2e8f0"/>
<text x="676" y="140" fill="#64748b" font-size="12">Repeat rate</text>
<text x="676" y="172" fill="#334155" font-size="22" font-weight="700">3.0%</text>
<text x="60" y="240" fill="#334155" font-size="15" font-weight="600">Key takeaways</text>
<circle cx="68" cy="264" r="4" fill="#059669"/>
<text x="82" y="268" fill="#334155" font-size="14">SP leads with R$ 5.07M (38% of revenue)</text>
<circle cx="68" cy="296" r="4" fill="#059669"/>
<text x="82" y="300" fill="#334155" font-size="14">Top category: health beauty</text>
<circle cx="68" cy="328" r="4" fill="#059669"/>
<text x="82" y="332" fill="#334155" font-size="14">78.34% of payments via credit card</text>
<circle cx="68" cy="360" r="4" fill="#059669"/>
<text x="82" y="364" fill="#334155" font-size="14">80.23% of customers inactive 90+ days</text>
<text x="60" y="430" fill="#64748b" font-size="12">Charts generated from SQL pipeline · Power BI report can be added later</text>
</svg>