<svg xmlns="http://www.w3.org/2000/svg" viewBox="0 0 900 420" role="img" font-family="system-ui,Segoe UI,sans-serif"><rect width="100%" height="100%" fill="#ffffff"/>
<text x="40" y="40" fill="#334155" font-size="20" font-weight="700">Monthly revenue trend</text>
<text x="40" y="62" fill="#64748b" font-size="13">Olist delivered orders · BRL</text>
<line x1="70" y1="360" x2="870" y2="360" stroke="#e2e8f0" stroke-width="1"/>
<text x="70.0" y="400" fill="#64748b" font-size="10" text-anchor="middle">2017-01</text>
<text x="196.3" y="400" fill="#64748b" font-size="10" text-anchor="middle">2017-04</text>
<text x="322.6" y="400" fill="#64748b" font-size="10" text-anchor="middle">2017-07</text>
<text x="448.9" y="400" fill="#64748b" font-size="10" text-anchor="middle">2017-10</text>
<text x="575.3" y="400" fill="#64748b" font-size="10" text-anchor="middle">2018-01</text>
<text x="701.6" y="400" fill="#64748b" font-size="10" text-anchor="middle">2018-04</text>
<text x="827.9" y="400" fill="#64748b" font-size="10" text-anchor="middle">2018-07</text>
<polyline fill="none" stroke="#059669" stroke-width="3" points="70.0,328.3 112.1,293.6 154.2,258.2 196.3,263.4 238.4,221.3 280.5,240.4 322.6,223.5 364.7,202.8 406.8,187.8 448.9,176.2 491.1,80.0 533.2,154.2 575.3,97.9 617.4,125.7 659.5,89.8 701.6,84.0 743.7,82.9 785.8,117.3 827.9,114.0 870.0,122.3"/>
<polygon fill="#059669" fill-opacity="0.12" points="70,360 70.0,328.3 112.1,293.6 154.2,258.2 196.3,263.4 238.4,221.3 280.5,240.4 322.6,223.5 364.7,202.8 406.8,187.8 448.9,176.2 491.1,80.0 533.2,154.2 575.3,97.9 617.4,125.7 659.5,89.8 701.6,84.0 743.7,82.9 785.8,117.3 827.9,114.0 870.0,122.3 870,360"/>
<text x="60" y="90" fill="#64748b" font-size="11" text-anchor="end">R$ 1.0M</text>
</svg>