<svg xmlns="http://www.w3.org/2000/svg" viewBox="0 0 900 460" role="img" font-family="system-ui,Segoe UI,sans-serif"><rect width="100%" height="100%" fill="#ffffff"/>
<text x="40" y="36" fill="#334155" font-size="20" font-weight="700">Revenue by state</text>
<text x="40" y="58" fill="#64748b" font-size="13">Top Brazilian states</text>
<text x="40" y="108" fill="#334155" font-size="13">SP</text>
<rect x="220" y="90" width="600.0" height="28" rx="6" fill="#059669"/>
<text x="830.0" y="109" fill="#334155" font-size="12" font-weight="600">R$ 5.07M</text>
<text x="40" y="146" fill="#334155" font-size="13">RJ</text>
<rect x="220" y="128" width="208.3" height="28" rx="6" fill="#059669"/>
<text x="438.3" y="147" fill="#334155" font-size="12" font-weight="600">R$ 1.76M</text>
<text x="40" y="184" fill="#334155" font-size="13">MG</text>
<rect x="220" y="166" width="183.8" height="28" rx="6" fill="#059669"/>
<text x="413.8" y="185" fill="#334155" font-size="12" font-weight="600">R$ 1.55M</text>
<text x="40" y="222" fill="#334155" font-size="13">RS</text>
<rect x="220" y="204" width="86.3" height="28" rx="6" fill="#059669"/>
<text x="316.3" y="223" fill="#334155" font-size="12" font-weight="600">R$ 0.73M</text>
<text x="40" y="260" fill="#334155" font-size="13">PR</text>
<rect x="220" y="242" width="78.9" height="28" rx="6" fill="#059669"/>
<text x="308.9" y="261" fill="#334155" font-size="12" font-weight="600">R$ 0.67M</text>
<text x="40" y="298" fill="#334155" font-size="13">SC</text>
<rect x="220" y="280" width="60.0" height="28" rx="6" fill="#059669"/>
<text x="290.0" y="299" fill="#334155" font-size="12" font-weight="600">R$ 0.51M</text>
<text x="40" y="336" fill="#334155" font-size="13">BA</text>
<rect x="220" y="318" width="58.4" height="28" rx="6" fill="#059669"/>
<text x="288.4" y="337" fill="#334155" font-size="12" font-weight="600">R$ 0.49M</text>
<text x="40" y="374" fill="#334155" font-size="13">DF</text>
<rect x="220" y="356" width="35.1" height="28" rx="6" fill="#059669"/>
<text x="265.1" y="375" fill="#334155" font-size="12" font-weight="600">R$ 0.30M</text>
</svg>