<svg xmlns="http://www.w3.org/2000/svg" viewBox="0 0 900 460" role="img" font-family="system-ui,Segoe UI,sans-serif"><rect width="100%" height="100%" fill="#ffffff"/>
<text x="40" y="36" fill="#334155" font-size="20" font-weight="700">Top categories by revenue</text>
<text x="40" y="58" fill="#64748b" font-size="13">Delivered order items</text>
<text x="40" y="108" fill="#334155" font-size="13">health beauty</text>
<rect x="220" y="90" width="600.0" height="28" rx="6" fill="#059669"/>
<text x="830.0" y="109" fill="#334155" font-size="12" font-weight="600">R$ 1.23M</text>
<text x="40" y="146" fill="#334155" font-size="13">watches gifts</text>
<rect x="220" y="128" width="567.4" height="28" rx="6" fill="#059669"/>
<text x="797.4" y="147" fill="#334155" font-size="12" font-weight="600">R$ 1.17M</text>
<text x="40" y="184" fill="#334155" font-size="13">bed bath table</text>
<rect x="220" y="166" width="498.0" height="28" rx="6" fill="#059669"/>
<text x="728.0" y="185" fill="#334155" font-size="12" font-weight="600">R$ 1.02M</text>
<text x="40" y="222" fill="#334155" font-size="13">sports leisure</text>
<rect x="220" y="204" width="464.6" height="28" rx="6" fill="#059669"/>
<text x="694.6" y="223" fill="#334155" font-size="12" font-weight="600">R$ 0.95M</text>
<text x="40" y="260" fill="#334155" font-size="13">computers accessories</text>
<rect x="220" y="242" width="432.4" height="28" rx="6" fill="#059669"/>
<text x="662.4" y="261" fill="#334155" font-size="12" font-weight="600">R$ 0.89M</text>
<text x="40" y="298" fill="#334155" font-size="13">furniture decor</text>
<rect x="220" y="280" width="346.4" height="28" rx="6" fill="#059669"/>
<text x="576.4" y="299" fill="#334155" font-size="12" font-weight="600">R$ 0.71M</text>
<text x="40" y="336" fill="#334155" font-size="13">housewares</text>
<rect x="220" y="318" width="299.5" height="28" rx="6" fill="#059669"/>
<text x="529.5" y="337" fill="#334155" font-size="12" font-weight="600">R$ 0.62M</text>
<text x="40" y="374" fill="#334155" font-size="13">cool stuff</text>
<rect x="220" y="356" width="296.9" height="28" rx="6" fill="#059669"/>
<text x="526.9" y="375" fill="#334155" font-size="12" font-weight="600">R$ 0.61M</text>
</svg>